<?xml version="1.0" encoding="UTF-8"?>
<svg width="316px" height="132px" viewBox="0 0 316 132" version="1.1" xmlns="http://www.w3.org/2000/svg" xmlns:xlink="http://www.w3.org/1999/xlink">
    <!-- Generator: Sketch 57.1 (83088) - https://sketch.com -->
    <title>Shape</title>
    <desc>Created with Sketch.</desc>
    <g id="Page-1" stroke="none" stroke-width="1" fill="none" fill-rule="evenodd">
        <g id="Custom-Software-Development-New" transform="translate(-665.000000, -718.000000)" fill="#EEF8FF" fill-rule="nonzero">
            <g id="features-box-one" transform="translate(-10.000000, 574.000000)">
                <g id="one" transform="translate(675.000000, 91.000000)">
                    <g id="Rectangle">
                        <path d="M-107.778077,-72.8538036 C-73.7227528,-49.832214 -63.6907311,-17.2568646 -57.1793166,21.4895735 C-49.2038309,68.8183963 -37.3374474,115.1987 -16.5214295,158.179191 C-2.84916823,186.457634 15.2380941,221.912824 42.0243328,240.460375 C72.9749143,261.887766 118.896622,251.351204 151.573327,241.911723 C200.172519,227.872496 250.571892,205.765142 294.40858,179.006615 C311.618539,168.504336 321.382812,162.858933 338.211087,175.121115 C340.598036,176.835306 343.628721,179.2866 346.910063,177.566695 C349.433735,176.246767 351.467484,172.749817 353.444265,169.481425 C357.744253,162.25515 362.601333,155.377398 367.971043,148.911129 C372.853179,143.094307 379,135.740426 379,127.638015 C379,122.318308 376.407967,118.575657 374.214709,115.781525 C370.397869,110.907508 362.017912,96.4054489 354.025336,99.6795543 C347.26896,102.45083 341.059475,108.313365 334.656299,112.564559 C317.828024,123.769657 299.849001,133.580545 281.995306,142.580049 C222.013956,172.824099 135.303336,209.296376 74.581405,160.676196 C32.0777627,126.632356 3.77618173,81.6462615 -6.17038838,28.6834632 C-12.829919,-6.79458353 -17.0341393,-42.1697787 -35.8790729,-73.5966199 C-42.9373778,-85.3616864 -52.399722,-94.938302 -64.0553247,-101.446515 C-75.9501921,-108.074722 -93.7754028,-110.885995 -106.541877,-104.069228 C-117.633499,-98.1266979 -117.576531,-80.1734006 -107.778077,-72.8538036 Z" id="Shape" transform="translate(132.000000, 72.500000) rotate(-360.000000) translate(-132.000000, -72.500000) "></path>
                    </g>
                </g>
            </g>
        </g>
    </g>
</svg>